REM DIRINDEX 1\2,1\4,1\3\5,1\3\6,1\3\7
REM DIRNAME folder01,folder02,folder03,folder04,folder05,folder06,folder07
TITLE ""
FILE "CD1Track60.mp3" MP3
  TRACK 01 AUDIO
    TITLE "0:"
    INDEX 01 00:00:00
  TRACK 02 AUDIO
    TITLE "5:cjc082_1111"
    INDEX 01 00:00:31
  TRACK 03 AUDIO
    TITLE "0:"
    INDEX 01 00:01:54
  TRACK 04 AUDIO
    TITLE "6:cjc082_1112"
    INDEX 01 00:02:28
  TRACK 05 AUDIO
    TITLE "0:"
    INDEX 01 00:03:51
  TRACK 06 AUDIO
    TITLE "5:cjc082_1113"
    INDEX 01 00:04:21
  TRACK 07 AUDIO
    TITLE "0:"
    INDEX 01 00:05:44
  TRACK 08 AUDIO
    TITLE "6:cjc082_1114"
    INDEX 01 00:06:20
  TRACK 09 AUDIO
    TITLE "0:"
    INDEX 01 00:07:45
  TRACK 10 AUDIO
    TITLE "5:cjc082_1115"
    INDEX 01 00:08:19
  TRACK 11 AUDIO
    TITLE "0:"
    INDEX 01 00:09:36
  TRACK 12 AUDIO
    TITLE "6:cjc082_1116"
    INDEX 01 00:10:12
  TRACK 13 AUDIO
    TITLE "0:"
    INDEX 01 00:11:72
  TRACK 14 AUDIO
    TITLE "5:cjc082_1117"
    INDEX 01 00:12:46
  TRACK 15 AUDIO
    TITLE "0:"
    INDEX 01 00:14:51
  TRACK 16 AUDIO
    TITLE "6:cjc082_1118"
    INDEX 01 00:15:25
  TRACK 17 AUDIO
    TITLE "0:"
    INDEX 01 00:17:35
  TRACK 18 AUDIO
    TITLE "5:cjc082_1119"
    INDEX 01 00:18:07
  TRACK 19 AUDIO
    TITLE "0:"
    INDEX 01 00:20:06
  TRACK 20 AUDIO
    TITLE "6:cjc082_1120"
    INDEX 01 00:20:55
  TRACK 21 AUDIO
    TITLE "0:"
    INDEX 01 00:22:34
  TRACK 22 AUDIO
    TITLE "5:cjc082_1121"
    INDEX 01 00:23:06
  TRACK 23 AUDIO
    TITLE "0:"
    INDEX 01 00:24:69
  TRACK 24 AUDIO
    TITLE "6:cjc082_1122"
    INDEX 01 00:25:41
  TRACK 25 AUDIO
    TITLE "0:"
    INDEX 01 00:27:69
  TRACK 26 AUDIO
    TITLE "5:cjc082_1123"
    INDEX 01 00:28:37
  TRACK 27 AUDIO
    TITLE "0:"
    INDEX 01 00:29:68
  TRACK 28 AUDIO
    TITLE "6:cjc082_1124"
    INDEX 01 00:30:42
  TRACK 29 AUDIO
    TITLE "0:"
    INDEX 01 00:33:28
  TRACK 30 AUDIO
    TITLE "5:cjc082_1125"
    INDEX 01 00:34:02
  TRACK 31 AUDIO
    TITLE "0:"
    INDEX 01 00:35:23
  TRACK 32 AUDIO
    TITLE "6:cjc082_1126"
    INDEX 01 00:35:74
  TRACK 33 AUDIO
    TITLE "0:"
    INDEX 01 00:39:23
  TRACK 34 AUDIO
    TITLE "5:cjc082_1127"
    INDEX 01 00:39:74
  TRACK 35 AUDIO
    TITLE "0:"
    INDEX 01 00:41:20
  TRACK 36 AUDIO
    TITLE "6:cjc082_1128"
    INDEX 01 00:41:67
  TRACK 37 AUDIO
    TITLE "0:"
    INDEX 01 00:44:20
  TRACK 38 AUDIO
    TITLE "5:cjc082_1129"
    INDEX 01 00:44:67
  TRACK 39 AUDIO
    TITLE "0:"
    INDEX 01 00:46:23
  TRACK 40 AUDIO
    TITLE "6:cjc082_1130"
    INDEX 01 00:46:68
  TRACK 41 AUDIO
    TITLE "0:"
    INDEX 01 00:48:26
  TRACK 42 AUDIO
    TITLE "5:cjc082_1131"
    INDEX 01 00:48:73
  TRACK 43 AUDIO
    TITLE "0:"
    INDEX 01 00:50:21
  TRACK 44 AUDIO
    TITLE "6:cjc082_1132"
    INDEX 01 00:50:70
  TRACK 45 AUDIO
    TITLE "0:"
    INDEX 01 00:52:02
  TRACK 46 AUDIO
    TITLE "5:cjc082_1133"
    INDEX 01 00:52:51
  TRACK 47 AUDIO
    TITLE "0:"
    INDEX 01 00:54:09
  TRACK 48 AUDIO
    TITLE "6:cjc082_1134"
    INDEX 01 00:54:58
  TRACK 49 AUDIO
    TITLE "0:"
    INDEX 01 00:56:14
  TRACK 50 AUDIO
    TITLE "5:cjc082_1135"
    INDEX 01 00:56:65
  TRACK 51 AUDIO
    TITLE "0:"
    INDEX 01 00:58:24
  TRACK 52 AUDIO
    TITLE "6:cjc082_1136"
    INDEX 01 00:58:71
  TRACK 53 AUDIO
    TITLE "0:"
    INDEX 01 01:00:29
  TRACK 54 AUDIO
    TITLE "5:cjc082_1137"
    INDEX 01 01:00:68
  TRACK 55 AUDIO
    TITLE "0:"
    INDEX 01 01:02:20
  TRACK 56 AUDIO
    TITLE "6:cjc082_1138"
    INDEX 01 01:02:63
  TRACK 57 AUDIO
    TITLE "0:"
    INDEX 01 01:04:54
  TRACK 58 AUDIO
    TITLE "5:cjc082_1139"
    INDEX 01 01:05:24
  TRACK 59 AUDIO
    TITLE "0:"
    INDEX 01 01:06:59
  TRACK 60 AUDIO
    TITLE "6:cjc082_1140"
    INDEX 01 01:07:33
  TRACK 61 AUDIO
    TITLE "0:"
    INDEX 01 01:09:28
  TRACK 62 AUDIO
    TITLE "7:cjc082_1141"
    INDEX 01 01:10:67
  TRACK 63 AUDIO
    TITLE "0:"
    INDEX 01 01:21:51
